<?xml version="1.0" encoding="UTF-8"?>
<svg version="1.1" viewBox="0 0 2048 2048" width="1000" height="1000" xmlns="http://www.w3.org/2000/svg">
<circle cx="1024" cy="1024" r="800" fill="#FEFEFE" fill-opacity="0.3"/>
<path transform="translate(616,454)" d="m0 0 7 6 7 8 9 9 7 8 13 14 7 8 28 30 33 36 14 15 7 8 28 30 9 10 28 30 18 20 4 4v2h2l7 8 12 13 11 12 15 16 9 10 12 13 2 2h219l20-1 16-17 14-15 11-12 15-16 7-8 11-12 9-9 7-8 11-12 7-8 16-17 22-24 15-16 11-12 7-8 15-16 12-13 11-12 14-15 33-36 12-13 9-10 3-2 2 37 8 198 12 284 3 65 2 32v9l-4-1-12-16-14-19-13-17-16-21-14-19-10-13-14-18-13-18-14-18-16-21-12-17-5 2-12 10-13 10-2 2 12 15 11 14 28 36 13 17 7 9 13 16 14 19 10 12 7 9 13 17 13 16 10 13 13 17 11 14 5 8v105l-3 5-11 9-14 12-16 13-15 13-13 11-14 11-15 13-14 12-14 11-15 13-26 22-11 9-13 11-10 8-14 12-11 9-13 11-14 11h-1v-68l17-14 14-12 11-9 14-12 10-8 14-12 13-11 10-8 13-11 11-9 10-9 10-8 11-9 15-13 11-9 17-14 2-2v-66l-12-17-11-14-13-16-14-19-11-14-11-13-9-12-16-21-8-10-10-13-11-14-13-17-14-17-11-15-2-3-5 1-10 8-11 8-10 9-13 10-14 11-13 11-15 11-14 11-9 8-12 9-17 13-13 11-17 13-18 14-14 11-4 4-5-1-13-11-17-13-14-11-13-11-9-6-9-8-13-10-15-12-14-11-13-10-16-13-13-10-15-12-13-10-14-11-3-3h-4l-7 8-6 10-9 10-8 11-7 8-8 11-10 13-14 18-13 17-14 18-9 11-7 9-20 26-22 28-12 16v67l12 11 10 8 13 11 11 9 15 13 14 11 12 11 10 8 13 11 10 8 14 12 13 11 22 18 14 12 16 13 4 4v67l-4-2-10-9-11-9-16-13-14-12-11-9-13-11-11-9-13-11-14-12-11-9-17-14-14-12-13-11-10-8-13-11-11-9-9-8-10-8-13-11-14-12-4-4-1-2v-105l6-9 14-18 33-42 9-12 11-14 13-16 13-18 11-13 7-9 30-39 12-15 18-24 2-1-1-4-17-13-11-9h-2l-7 10-14 19-11 14-14 18-10 14-14 18-36 48-14 18-13 18-14 18-4 2 1-19 2-60 8-194 7-167 7-174z" fill="#343535"/>
<path transform="translate(798,996)" d="m0 0 9 6 10 10 11 9 13 12 8 7 14 12 12 11 13 11 8 7 10 9 8 7 13 12 1 1 1 385 12 12 8 7 11 11 8 7 8 8 24 1-1-33-8-12-14-19-6-9v-1h105l-1 4-10 14-13 18-3 4-1 34 23-1 8-7 12-12 8-7 7-7 8-7 5-5 1-385 14-14 11-9 12-11 16-14 11-9 5-5h2v-2l11-9 11-10 8-7 15-14 13-10 7 6 8 11 9 12 7 8 1 5-9 7-9 9-8 7-14 12-11 10-10 8-7 7-8 7-15 13-10 9-7 6v123l-1 30 10-8 15-13 10-9 8-7 11-10 8-7 14-12 14-13 11-9 13-12 11-9 17-16 11-9 11-10 8-7 7-6 4 1 9 10 9 11 9 9 5 7-5 5-13 12-11 9-14 13-11 9-15 14-11 9-14 13-8 7-14 12-12 11-8 7-20 18-11 9-12 11-8 7-13 12-11 9-3 4v143l-1 16-25 25-8 7-7 7-8 7-18 18-8 7-6 5-94 1h-26l-16-1-8-7-12-11-18-18-8-7-7-7-8-7-19-19-1-4v-153l-2-5-10-9-11-9-8-8-8-7-15-13-8-7-12-11-14-12-11-10-8-7-14-12-14-13-11-9-15-14-14-12-15-13-11-10-8-7-5-5 2-4 9-9 7-8 10-11 5-6 4 1 10 9 11 10 11 9 12 11 8 7 11 10 11 9 12 11 8 7 12 11 11 9 15 14 8 7 14 12 11 10 8 7 5 3-1-152-5-6-11-9-11-10-8-7-12-11-11-9-13-12-14-12-10-9-8-7-5-6 8-12 8-10 6-7 4-6z" fill="#343535"/>
<path transform="translate(907,819)" d="m0 0h235l11 14 28 36 11 14 9 12-1 3-17 13-14 11-10 8-14 11-11 9-17 13-11 9-10 8-16 13-19 14-12 10-10 8-13 10-4 1-13-11-11-9-15-12-12-9-15-12-11-9-36-28-17-14-13-10-18-14-14-11 1-4 9-11 8-10 10-13 14-18 13-17z" fill="#FEFEFE"/>
<path transform="translate(663,582)" d="m0 0 6 5 7 8 16 17 9 10 28 30 9 10 11 12 12 13 14 15 7 8 12 13 16 17 9 10 11 12 15 16 11 12 3 5-13 17-12 16-14 17-10 13-3 5-5-2-14-11-18-14-14-11-16-13-7-5-5 5-8 11-13 17-11 14-13 18-11 14-14 18-7 10-2 1 2-58 9-219 2-54z" fill="#FEFEFE"/>
<path transform="translate(1384,582)" d="m0 0 2 1 3 81 10 244v7l-5-5-9-12-20-26-14-19-20-26-14-19-2-1-13 10-16 13-17 13-18 14-8 6-5-5-13-16-11-14-10-13-11-14-4-5 2-4 10-11 7-8 9-10 8-8 7-8 15-16 7-8 29-31 9-10 12-13 13-14 7-8 14-15 24-26 11-12z" fill="#FEFEFE"/>
</svg>
